<?xml version="1.0" encoding="utf-8"?>
<!-- Generator: Adobe Illustrator 27.8.0, SVG Export Plug-In . SVG Version: 6.00 Build 0)  -->
<svg version="1.1" id="Layer_1" xmlns="http://www.w3.org/2000/svg" xmlns:xlink="http://www.w3.org/1999/xlink" x="0px" y="0px"
	 viewBox="0 0 16 16" style="enable-background:new 0 0 16 16;" xml:space="preserve">
<path d="M9.4,8l4.8-4.8c0.2-0.2,0.3-0.4,0.3-0.7S14.4,2,14.2,1.8l0,0c-0.4-0.4-1-0.4-1.4,0L8,6.6L3.2,1.8C3,1.6,2.8,1.5,2.5,1.5l0,0
	C2.2,1.5,2,1.6,1.8,1.8l0,0c-0.4,0.4-0.4,1,0,1.4L6.6,8l-4.8,4.8c-0.4,0.4-0.4,1,0,1.4c0.2,0.2,0.5,0.3,0.7,0.3s0.5-0.1,0.7-0.3
	L8,9.4l4.8,4.8c0.2,0.2,0.5,0.3,0.7,0.3s0.5-0.1,0.7-0.3s0.3-0.4,0.3-0.7s-0.1-0.5-0.3-0.7L9.4,8z M2.1,2.1L2.1,2.1L2.1,2.1L2.1,2.1
	z"/>
</svg>
