<?xml version="1.0" encoding="utf-8"?>
<!-- Generator: Adobe Illustrator 27.8.0, SVG Export Plug-In . SVG Version: 6.00 Build 0)  -->
<svg version="1.1" id="Layer_1" xmlns="http://www.w3.org/2000/svg" xmlns:xlink="http://www.w3.org/1999/xlink" x="0px" y="0px"
	 viewBox="0 0 100 100" style="enable-background:new 0 0 100 100;" xml:space="preserve">
<g>
	<path d="M39.1,44.9c0.2,0.5,0.5,0.9,0.9,1.2s1,0.6,1.6,0.7c1.1,0.3,2.5,0.1,3.7-0.6c-1.7-0.8-3.8-2.1-5.9-3.7
		C39,43.4,38.9,44.2,39.1,44.9z"/>
	<path d="M49.7,66.9c0.1,0.3,0.2,0.6,0.3,0.9c0.1-0.3,0.2-0.6,0.3-0.9c1.3-4.3,2.7-8.5,6.9-10.9L55,54.7c-0.2-0.1-0.4-0.2-0.5-0.4
		s-0.2-0.4-0.2-0.6c0.2-4.3-1-6.2-2.5-7.3c-0.6-0.4-1.2-0.6-1.8-0.6s-1.2,0.2-1.8,0.6c-1.6,1.2-2.7,3.1-2.5,7.3
		c0,0.2-0.1,0.5-0.2,0.6c-0.1,0.2-0.3,0.3-0.5,0.4L42.8,56C47,58.4,48.4,62.6,49.7,66.9z"/>
	<path d="M38.4,31c-0.6,0.5-1.1,0.9-1.6,1.5c-1.4,0-3.5-1.5-4.5-3c1.7,5.5,9.3,12,14.6,14.4l0,0c0.9-0.7,2-1.1,3.1-1.1
		s2.1,0.4,3.1,1.1l0,0c5.3-2.5,12.9-9,14.6-14.4c-1,1.5-3.1,3.1-4.5,3c-0.5-0.5-1-1-1.6-1.5c-1.3-1.1-2.7-1.9-4.3-2.6
		c-2.2-1-4.8-1.5-7.3-1.5c-2.5,0.1-5.1,0.6-7.3,1.5C41.2,29,39.7,29.9,38.4,31z"/>
	<path d="M60.8,44.9c-0.2,0.5-0.5,0.9-0.9,1.2s-1,0.6-1.6,0.7c-1.1,0.3-2.5,0.1-3.7-0.6c1.7-0.8,3.8-2.1,5.9-3.7
		C61,43.4,61.1,44.2,60.8,44.9z"/>
	<path d="M33.7,37.6c-1.4,2.7-2.1,5.4-2.1,8.4v4.8v2.5c-0.1,6.1-1.4,12.3-4.4,18l6.3-5.1l4.4,7.2l4.7-4.4L50,81.2l7.5-12.1l4.7,4.4
		l4.4-7.2l6.3,5.1c-3-5.7-4.3-11.9-4.4-18v-2.5v-4.8c0-3-0.7-5.7-2.1-8.4L66,36.9c-0.8,1.2-1.9,2.5-3,3.6l0.4,0.8
		c0.7,1.5,0.9,3.1,0.4,4.7c-0.4,1-1,1.9-1.8,2.5c-1,0.5-2,1-3,1.2c-0.7,0.1-1.3,0.2-2,0.2c0.2,0.9,0.2,1.8,0.2,2.7l5.9,3.4l-4.6,2.6
		c-0.4,0.2-0.7,0.4-1,0.7c-3.1,2.8-5.1,9.9-6.7,15.1c-0.3,1.2-0.7,2.3-0.9,3.2c-0.3-0.9-0.6-2-0.9-3.2c-1.5-5.2-3.6-12.4-6.7-15.1
		c-0.3-0.3-0.7-0.5-1-0.7L36.8,56l5.9-3.4c0-0.9,0.1-1.8,0.2-2.7c-0.7,0-1.3,0-2-0.2c-1-0.2-2-0.7-2.8-1.3c-0.8-0.7-1.5-1.5-1.8-2.5
		c-0.6-1.6-0.3-3.2,0.4-4.7l0.4-0.8c-1.2-1.2-2.2-2.5-3-3.6L33.7,37.6z"/>
</g>
</svg>
