<?xml version="1.0" encoding="utf-8"?>
<!-- Generator: Adobe Illustrator 27.8.0, SVG Export Plug-In . SVG Version: 6.00 Build 0)  -->
<svg version="1.1" id="Layer_1" xmlns="http://www.w3.org/2000/svg" xmlns:xlink="http://www.w3.org/1999/xlink" x="0px" y="0px"
	 viewBox="0 0 76.5 77.7" style="enable-background:new 0 0 76.5 77.7;" xml:space="preserve">
<g id="Telegram">
	<path id="Vector" d="M54.2,19.8L14.3,35.3c0,0-1.8,0.7-1.8,1.8c0.2,1.1,1.8,1.8,1.8,1.8l10.1,3.4L48.6,27c0,0,1.4-0.9,1.4,0
		c0,0,0.2,0.2-0.5,0.9c-0.7,0.7-19,17.1-19,17.1l-1.4,11.3c0.5,0.2,1.1-0.2,1.1-0.2l6.5-5.9L47,58.1c2.7,1.1,3.8-1.4,3.8-1.4
		L58,20.9C57.6,18.2,54.2,19.8,54.2,19.8z"/>
</g>
</svg>
